# xmcd
#
# Track frame offsets: 
#        183
#        20350
#        44490
#        66955
#        88385
#        116253
#        137695
#        159173
#        178018
#        201233
#        231023
#        243765
#        259158
#        276568
#
# Disc length: 3894 seconds
#
# Revision: 3
# Processed by: cddbd v1.5.2PL0 Copyright (c) Steve Scherf et al.
# Submitted via: ExactAudioCopy v0.99pb4
#
DISCID=c40f340e
DTITLE=Santana - The Very Best Of Santana - CD 01
DYEAR=1992
DGENRE=Rock
TTITLE0=Samba Pa Ti
TTITLE1=Black Magic Woman/Gypsy Queen
TTITLE2=Europe (Earth's Cry Heavens Smile)
TTITLE3=Stormy
TTITLE4=Song Of The Wind
TTITLE5=They All Went To Mexico
TTITLE6=Flor D'Luna (Moonflower)
TTITLE7=Well Alright
TTITLE8=I'll Be Waiting
TTITLE9=Soul Sacrifice
TTITLE10=Se A Cabo
TTITLE11=Wham!
TTITLE12=Evil Ways
TTITLE13=Everybody's Everything
EXTD=YEAR: 1992
EXTT0=
EXTT1=
EXTT2=
EXTT3=
EXTT4=
EXTT5=
EXTT6=
EXTT7=
EXTT8=
EXTT9=
EXTT10=
EXTT11=
EXTT12=
EXTT13=
PLAYORDER=
